<svg width="37" height="48" viewBox="0 0 37 48" fill="none" xmlns="http://www.w3.org/2000/svg">
<path d="M10.4941 6.34473C10.4941 7.31999 10.3301 8.1722 10.002 8.90137C9.67383 9.62598 9.20898 10.1797 8.60742 10.5625C8.00586 10.9453 7.30404 11.1367 6.50195 11.1367C5.7181 11.1367 5.02311 10.9453 4.41699 10.5625C3.81087 10.1751 3.33919 9.62598 3.00195 8.91504C2.66927 8.19954 2.49837 7.3724 2.48926 6.43359V5.71582C2.48926 4.75879 2.6556 3.91341 2.98828 3.17969C3.32096 2.44596 3.79036 1.88542 4.39648 1.49805C5.00716 1.10612 5.70443 0.910156 6.48828 0.910156C7.28581 0.910156 7.98763 1.10384 8.59375 1.49121C9.20443 1.87402 9.67383 2.43229 10.002 3.16602C10.3301 3.89518 10.4941 4.74512 10.4941 5.71582V6.34473ZM9.18848 5.70215C9.18848 4.52181 8.9515 3.61719 8.47754 2.98828C8.00358 2.35482 7.34049 2.03809 6.48828 2.03809C5.65885 2.03809 5.00488 2.35482 4.52637 2.98828C4.05241 3.61719 3.80859 4.49219 3.79492 5.61328V6.34473C3.79492 7.48861 4.03418 8.38867 4.5127 9.04492C4.99577 9.69661 5.65885 10.0225 6.50195 10.0225C7.34961 10.0225 8.00586 9.71484 8.4707 9.09961C8.93555 8.47982 9.1748 7.59342 9.18848 6.44043V5.70215ZM18.5127 7.38379C18.5127 8.50944 18.2552 9.41634 17.7402 10.1045C17.2253 10.7926 16.528 11.1367 15.6484 11.1367C14.7507 11.1367 14.0443 10.8519 13.5293 10.2822V13.8438H12.2646V3.60352H13.4199L13.4814 4.42383C13.9964 3.78581 14.7119 3.4668 15.6279 3.4668C16.5166 3.4668 17.2184 3.80176 17.7334 4.47168C18.2529 5.1416 18.5127 6.07357 18.5127 7.26758V7.38379ZM17.248 7.24023C17.248 6.40625 17.0703 5.74772 16.7148 5.26465C16.3594 4.78158 15.8717 4.54004 15.252 4.54004C14.4863 4.54004 13.9121 4.87956 13.5293 5.55859V9.09277C13.9076 9.76725 14.4863 10.1045 15.2656 10.1045C15.8717 10.1045 16.3525 9.86523 16.708 9.38672C17.068 8.90365 17.248 8.18815 17.248 7.24023ZM23.1953 11.1367C22.1927 11.1367 21.377 10.8086 20.748 10.1523C20.1191 9.49154 19.8047 8.6097 19.8047 7.50684V7.27441C19.8047 6.54069 19.9437 5.88672 20.2217 5.3125C20.5042 4.73372 20.8962 4.28255 21.3975 3.95898C21.9033 3.63086 22.4502 3.4668 23.0381 3.4668C23.9997 3.4668 24.7471 3.78353 25.2803 4.41699C25.8135 5.05046 26.0801 5.95736 26.0801 7.1377V7.66406H21.0693C21.0876 8.39323 21.2995 8.9834 21.7051 9.43457C22.1152 9.88118 22.6348 10.1045 23.2637 10.1045C23.7103 10.1045 24.0885 10.0133 24.3984 9.83105C24.7083 9.64876 24.9795 9.40723 25.2119 9.10645L25.9844 9.70801C25.3646 10.6605 24.4349 11.1367 23.1953 11.1367ZM23.0381 4.50586C22.5277 4.50586 22.0993 4.69271 21.7529 5.06641C21.4066 5.43555 21.1924 5.95508 21.1104 6.625H24.8154V6.5293C24.779 5.88672 24.6058 5.38997 24.2959 5.03906C23.986 4.68359 23.5667 4.50586 23.0381 4.50586ZM28.7461 3.60352L28.7871 4.5332C29.3522 3.82227 30.0905 3.4668 31.002 3.4668C32.5651 3.4668 33.3535 4.34863 33.3672 6.1123V11H32.1025V6.10547C32.098 5.57227 31.9749 5.17806 31.7334 4.92285C31.4964 4.66764 31.125 4.54004 30.6191 4.54004C30.209 4.54004 29.849 4.64941 29.5391 4.86816C29.2292 5.08691 28.9876 5.37402 28.8145 5.72949V11H27.5498V3.60352H28.7461ZM16.4922 27.0312H11.7266L10.6562 30H9.10938L13.4531 18.625H14.7656L19.1172 30H17.5781L16.4922 27.0312ZM12.1797 25.7969H16.0469L14.1094 20.4766L12.1797 25.7969ZM21.9922 30H20.5469V18H21.9922V30ZM25.8828 30H24.4375V18H25.8828V30ZM3.51465 41.2612H1.34375V45H0.118652V35.7578H3.17822C4.21924 35.7578 5.01904 35.9948 5.57764 36.4688C6.14046 36.9427 6.42188 37.6325 6.42188 38.5381C6.42188 39.1136 6.2653 39.6151 5.95215 40.0425C5.64323 40.4699 5.21159 40.7894 4.65723 41.001L6.82812 44.9238V45H5.52051L3.51465 41.2612ZM1.34375 40.2646H3.21631C3.82145 40.2646 4.30176 40.1081 4.65723 39.7949C5.01693 39.4818 5.19678 39.0628 5.19678 38.5381C5.19678 37.9668 5.02539 37.5288 4.68262 37.2241C4.34408 36.9194 3.85319 36.765 3.20996 36.7607H1.34375V40.2646ZM10.8018 45.127C9.87077 45.127 9.11328 44.8223 8.5293 44.2129C7.94531 43.5993 7.65332 42.7804 7.65332 41.7563V41.5405C7.65332 40.8592 7.78239 40.252 8.04053 39.7188C8.3029 39.1813 8.66683 38.7624 9.13232 38.4619C9.60205 38.1572 10.1099 38.0049 10.6558 38.0049C11.5487 38.0049 12.2427 38.299 12.7378 38.8872C13.2329 39.4754 13.4805 40.3175 13.4805 41.4136V41.9023H8.82764C8.84456 42.5794 9.04134 43.1274 9.41797 43.5464C9.79883 43.9611 10.2812 44.1685 10.8652 44.1685C11.2799 44.1685 11.6312 44.0838 11.9189 43.9146C12.2067 43.7453 12.4585 43.521 12.6743 43.2417L13.3916 43.8003C12.8161 44.6847 11.9528 45.127 10.8018 45.127ZM10.6558 38.9697C10.1818 38.9697 9.78402 39.1432 9.4624 39.4902C9.14079 39.833 8.94189 40.3154 8.86572 40.9375H12.3062V40.8486C12.2723 40.252 12.1115 39.7907 11.8237 39.4648C11.536 39.1348 11.1466 38.9697 10.6558 38.9697ZM16.1211 45H14.9468V35.25H16.1211V45ZM22.2466 45C22.1789 44.8646 22.1239 44.6234 22.0815 44.2764C21.5356 44.8434 20.884 45.127 20.1265 45.127C19.4494 45.127 18.8929 44.9365 18.457 44.5557C18.0254 44.1706 17.8096 43.6839 17.8096 43.0957C17.8096 42.3805 18.0804 41.8262 18.6221 41.4326C19.168 41.0348 19.9339 40.8359 20.9199 40.8359H22.0625V40.2964C22.0625 39.8859 21.9398 39.5601 21.6943 39.3188C21.4489 39.0734 21.0871 38.9507 20.6089 38.9507C20.1899 38.9507 19.8387 39.0565 19.5552 39.2681C19.2716 39.4797 19.1299 39.7357 19.1299 40.0361H17.9492C17.9492 39.6934 18.0698 39.3633 18.311 39.0459C18.5565 38.7243 18.8866 38.4704 19.3013 38.2842C19.7202 38.098 20.1794 38.0049 20.6787 38.0049C21.4701 38.0049 22.09 38.2038 22.5386 38.6016C22.9871 38.9951 23.2199 39.5389 23.2368 40.2329V43.394C23.2368 44.0246 23.3172 44.526 23.478 44.8984V45H22.2466ZM20.2979 44.105C20.666 44.105 21.0151 44.0098 21.3452 43.8193C21.6753 43.6289 21.9144 43.3813 22.0625 43.0767V41.6675H21.1421C19.7033 41.6675 18.9839 42.0885 18.9839 42.9307C18.9839 43.2988 19.1066 43.5866 19.3521 43.7939C19.5975 44.0013 19.9128 44.105 20.2979 44.105ZM27.2231 43.2798L28.8228 38.1318H30.0796L27.3184 46.0601C26.891 47.2026 26.2118 47.7739 25.2808 47.7739L25.0586 47.7549L24.6206 47.6724V46.7202L24.938 46.7456C25.3358 46.7456 25.6447 46.6652 25.8647 46.5044C26.089 46.3436 26.2731 46.0495 26.417 45.6221L26.6772 44.9238L24.2271 38.1318H25.5093L27.2231 43.2798ZM35.1323 43.1782C35.1323 42.8608 35.0117 42.6154 34.7705 42.4419C34.5335 42.2642 34.1167 42.1118 33.52 41.9849C32.9276 41.8579 32.4557 41.7056 32.1045 41.5278C31.7575 41.3501 31.4993 41.1385 31.3301 40.8931C31.165 40.6476 31.0825 40.3556 31.0825 40.0171C31.0825 39.4543 31.3195 38.9782 31.7935 38.5889C32.2716 38.1995 32.881 38.0049 33.6216 38.0049C34.4002 38.0049 35.0308 38.2059 35.5132 38.6079C35.9998 39.0099 36.2432 39.5241 36.2432 40.1504H35.0625C35.0625 39.8288 34.925 39.5516 34.6499 39.3188C34.3791 39.0861 34.0363 38.9697 33.6216 38.9697C33.1942 38.9697 32.8599 39.0628 32.6187 39.249C32.3774 39.4352 32.2568 39.6785 32.2568 39.979C32.2568 40.2625 32.369 40.4762 32.5933 40.6201C32.8175 40.764 33.2217 40.9015 33.8057 41.0327C34.3939 41.1639 34.87 41.3205 35.2339 41.5024C35.5978 41.6844 35.8665 41.9045 36.04 42.1626C36.2178 42.4165 36.3066 42.7275 36.3066 43.0957C36.3066 43.7093 36.0612 44.2023 35.5703 44.5747C35.0794 44.9429 34.4425 45.127 33.6597 45.127C33.1095 45.127 32.6229 45.0296 32.1997 44.835C31.7765 44.6403 31.4443 44.3695 31.2031 44.0225C30.9661 43.6712 30.8477 43.2925 30.8477 42.8862H32.022C32.0431 43.2798 32.1997 43.5929 32.4917 43.8257C32.7879 44.0542 33.1772 44.1685 33.6597 44.1685C34.104 44.1685 34.4595 44.0796 34.7261 43.9019C34.9969 43.7199 35.1323 43.4787 35.1323 43.1782Z" fill="black"/>
</svg>
