<svg width="37" height="16" viewBox="0 0 37 16" fill="none" xmlns="http://www.w3.org/2000/svg">
<path d="M4.29688 7.39844H1.625V12H0.117188V0.625H3.88281C5.16406 0.625 6.14844 0.916667 6.83594 1.5C7.52865 2.08333 7.875 2.93229 7.875 4.04688C7.875 4.75521 7.68229 5.3724 7.29688 5.89844C6.91667 6.42448 6.38542 6.81771 5.70312 7.07812L8.375 11.9062V12H6.76562L4.29688 7.39844ZM1.625 6.17188H3.92969C4.67448 6.17188 5.26562 5.97917 5.70312 5.59375C6.14583 5.20833 6.36719 4.69271 6.36719 4.04688C6.36719 3.34375 6.15625 2.80469 5.73438 2.42969C5.31771 2.05469 4.71354 1.86458 3.92188 1.85938H1.625V6.17188ZM13.2656 12.1562C12.1198 12.1562 11.1875 11.7812 10.4688 11.0312C9.75 10.276 9.39062 9.26823 9.39062 8.00781V7.74219C9.39062 6.90365 9.54948 6.15625 9.86719 5.5C10.1901 4.83854 10.638 4.32292 11.2109 3.95312C11.7891 3.57812 12.4141 3.39062 13.0859 3.39062C14.1849 3.39062 15.0391 3.7526 15.6484 4.47656C16.2578 5.20052 16.5625 6.23698 16.5625 7.58594V8.1875H10.8359C10.8568 9.02083 11.099 9.69531 11.5625 10.2109C12.0312 10.7214 12.625 10.9766 13.3438 10.9766C13.8542 10.9766 14.2865 10.8724 14.6406 10.6641C14.9948 10.4557 15.3047 10.1797 15.5703 9.83594L16.4531 10.5234C15.7448 11.612 14.6823 12.1562 13.2656 12.1562ZM13.0859 4.57812C12.5026 4.57812 12.013 4.79167 11.6172 5.21875C11.2214 5.64062 10.9766 6.23438 10.8828 7H15.1172V6.89062C15.0755 6.15625 14.8776 5.58854 14.5234 5.1875C14.1693 4.78125 13.6901 4.57812 13.0859 4.57812ZM19.8125 12H18.3672V0H19.8125V12ZM27.3516 12C27.2682 11.8333 27.2005 11.5365 27.1484 11.1094C26.4766 11.8073 25.6745 12.1562 24.7422 12.1562C23.9089 12.1562 23.224 11.9219 22.6875 11.4531C22.1562 10.9792 21.8906 10.3802 21.8906 9.65625C21.8906 8.77604 22.224 8.09375 22.8906 7.60938C23.5625 7.11979 24.5052 6.875 25.7188 6.875H27.125V6.21094C27.125 5.70573 26.974 5.30469 26.6719 5.00781C26.3698 4.70573 25.9245 4.55469 25.3359 4.55469C24.8203 4.55469 24.388 4.6849 24.0391 4.94531C23.6901 5.20573 23.5156 5.52083 23.5156 5.89062H22.0625C22.0625 5.46875 22.2109 5.0625 22.5078 4.67188C22.8099 4.27604 23.2161 3.96354 23.7266 3.73438C24.2422 3.50521 24.8073 3.39062 25.4219 3.39062C26.3958 3.39062 27.1589 3.63542 27.7109 4.125C28.263 4.60938 28.5495 5.27865 28.5703 6.13281V10.0234C28.5703 10.7995 28.6693 11.4167 28.8672 11.875V12H27.3516ZM24.9531 10.8984C25.4062 10.8984 25.8359 10.7812 26.2422 10.5469C26.6484 10.3125 26.9427 10.0078 27.125 9.63281V7.89844H25.9922C24.2214 7.89844 23.3359 8.41667 23.3359 9.45312C23.3359 9.90625 23.487 10.2604 23.7891 10.5156C24.0911 10.7708 24.4792 10.8984 24.9531 10.8984ZM33.4766 9.88281L35.4453 3.54688H36.9922L33.5938 13.3047C33.0677 14.7109 32.2318 15.4141 31.0859 15.4141L30.8125 15.3906L30.2734 15.2891V14.1172L30.6641 14.1484C31.1536 14.1484 31.5339 14.0495 31.8047 13.8516C32.0807 13.6536 32.3073 13.2917 32.4844 12.7656L32.8047 11.9062L29.7891 3.54688H31.3672L33.4766 9.88281Z" fill="black"/>
</svg>
